<svg xmlns="http://www.w3.org/2000/svg" id="prefix__logoQC" width="138" height="35.193" viewBox="0 0 138 35.193">
    <defs>
        <style>
            .prefix__cls-1{fill:#4bb9b5}.prefix__cls-2{fill:#221f20}.prefix__cls-4{fill:#4dbab6}
        </style>
    </defs>
    <g id="prefix__Group_5355" data-name="Group 5355" transform="translate(53.766 11.3)">
        <path id="prefix__Path_5031" d="M336.835 269.682c-3.908 0-6.135-2.653-6.135-6.6 0-3.868 2.288-6.581 6.135-6.581 3.888 0 6.156 2.693 6.156 6.581a6.811 6.811 0 0 1-1.336 4.394l1.377 1.316-.688.688a.963.963 0 0 1-1.417.04l-.729-.668a6.323 6.323 0 0 1-3.363.83zm3.523-6.6c0-2.531-1.134-4.333-3.523-4.333s-3.5 1.883-3.5 4.333c0 2.511 1.093 4.394 3.5 4.394a3.865 3.865 0 0 0 .79-.081 4.23 4.23 0 0 0 .749-.263L337 265.855l.445-.486a1.159 1.159 0 0 1 1.62-.2l.729.547a4.93 4.93 0 0 0 .565-2.635z" data-name="Path 5031" transform="translate(-330.7 -256.459)"/>
        <path id="prefix__Path_5032" d="M406.283 277.394c0 1.721-.425 2.855-1.316 3.4a5.83 5.83 0 0 1-2.936.77 5.063 5.063 0 0 1-2.835-.85c-.871-.547-1.3-1.64-1.3-3.321V271.4h2.511v6.52a1.7 1.7 0 0 0 3.4 0v-5.265a1.079 1.079 0 0 1 1.215-1.255h1.278v5.994z" data-name="Path 5032" transform="translate(-384.293 -268.342)"/>
        <path id="prefix__Path_5033" d="M446 257.3a1.072 1.072 0 0 1 1.215 1.235v.729H444.7V257.3zm0 2.855a1.074 1.074 0 0 1 1.215 1.215v8.768H444.7v-9.983z" data-name="Path 5033" transform="translate(-421.617 -257.098)"/>
        <path id="prefix__Path_5034" d="M468.337 281.047c-3.017 0-4.576-1.741-4.637-5.163 0-3.422 1.519-5.143 4.6-5.184 2.41 0 3.847 1.073 4.293 3.24h-2.734a1.619 1.619 0 0 0-1.62-1.033c-1.316 0-1.984.992-1.984 2.977s.688 2.977 2.086 2.956a2 2 0 0 0 1.519-.709 1.166 1.166 0 0 1 .85-.364h1.883a3.938 3.938 0 0 1-4.256 3.28z" data-name="Path 5034" transform="translate(-436.77 -267.784)"/>
        <path id="prefix__Path_5035" d="M516.531 258.613v5.528l3.1-3.544h3.017l-3.463 3.706 3.483 5.933h-3l-1.782-3.28q-.486-.851-.972-.85a.464.464 0 0 0-.4.486v3.645H514V257.4h1.3a1.21 1.21 0 0 1 1.231 1.213z" data-name="Path 5035" transform="translate(-476.885 -257.175)"/>
        <path id="prefix__Path_5036" d="M564.913 269.523c-3.948 0-5.913-2.612-5.913-6.6 0-4.131 2.086-6.621 6.135-6.621a5.76 5.76 0 0 1 3.786 1.174 4.809 4.809 0 0 1 1.539 3.321h-1.579a1.306 1.306 0 0 1-1.235-.769 2.508 2.508 0 0 0-2.531-1.4c-2.43 0-3.5 1.721-3.5 4.313 0 2.511 1.033 4.293 3.442 4.293a2.7 2.7 0 0 0 2.875-2.329h2.551c-.245 2.937-2.33 4.618-5.57 4.618z" class="prefix__cls-1" data-name="Path 5036" transform="translate(-512.773 -256.3)"/>
        <path id="prefix__Path_5037" d="M623.694 273.354h-2.511c.3-1.843 1.6-2.754 3.908-2.754 2.754 0 4.151.911 4.212 2.754v3.4c0 2.754-1.66 3.989-4.353 4.171-2.389.182-4.05-.931-4.05-3.139.061-2.389 1.8-3.037 4.313-3.28 1.073-.142 1.62-.445 1.62-.992-.061-.567-.587-.85-1.62-.85-.891.001-1.377.224-1.519.69zm3.179 3.3v-.931a11.745 11.745 0 0 1-2 .607c-.992.182-1.519.668-1.519 1.4a1.118 1.118 0 0 0 1.255 1.174 2.071 2.071 0 0 0 2.264-2.25z" class="prefix__cls-1" data-name="Path 5037" transform="translate(-562.139 -267.704)"/>
        <path id="prefix__Path_5038" d="M668.4 276.14c.081-3.22 1.8-4.839 5.143-4.839h.364v2.612h-.85c-1.4 0-2.086.729-2.086 2.187v5.184h-2.551v-5.144z" class="prefix__cls-1" data-name="Path 5038" transform="translate(-600.021 -268.263)"/>
        <path id="prefix__Path_5039" d="M710.015 258.576v7.249c0 3-1.559 4.5-4.678 4.475-3.1-.061-4.637-1.741-4.637-5.062 0-3.4 1.316-5.143 3.989-5.224a3.153 3.153 0 0 1 2.855 1.539V257.3h1.256a1.259 1.259 0 0 1 1.215 1.276zm-6.723 6.54c-.02 2.025.668 3.037 2.086 3.037 1.438 0 2.146-1.012 2.146-3.037-.061-1.924-.749-2.875-2.106-2.875s-2.065.951-2.126 2.875z" class="prefix__cls-1" data-name="Path 5039" transform="translate(-625.781 -257.098)"/>
    </g>
    <g id="prefix__Group_5356" data-name="Group 5356">
        <path id="prefix__Path_5040" d="M111.961 255.748c-.526-.567-1.033-1.154-1.579-1.7-.526-.547-1.093-1.073-1.64-1.6-.1-.1-.1-.162-.02-.263.364-.385.729-.79 1.093-1.174a3.565 3.565 0 0 1 2.41-1.053 2.871 2.871 0 0 1 2.187.709c.445.385.931.749 1.4 1.134.1.081.142.1.223-.041a11.423 11.423 0 0 0 1.154-3.584c.081-.749.263-1.5.283-2.268a15.037 15.037 0 0 0-1.681-8.221 2.715 2.715 0 0 0-.364-.567c-.122-.142-.081-.223.04-.344a7.7 7.7 0 0 1 3.382-2 10.464 10.464 0 0 1 2.511-.385.357.357 0 0 1 .4.223 18.285 18.285 0 0 1 2.187 5.913 25.864 25.864 0 0 1 .344 6.378 18.673 18.673 0 0 1-1.782 7.087 11.539 11.539 0 0 1-1.559 2.389c-.1.142-.142.2.02.344 1.134 1.053 2.248 2.126 3.382 3.2.1.081.1.142.02.223-.607.587-1.215 1.195-1.8 1.8a2.632 2.632 0 0 1-3.685.02c-.607-.506-1.195-1.053-1.762-1.579-.142-.121-.2-.1-.344-.02a9.341 9.341 0 0 1-3.523 1.478 22.383 22.383 0 0 1-3.462.547 17.87 17.87 0 0 1-10.064-1.944 13.835 13.835 0 0 1-6.338-7.533 20.381 20.381 0 0 1-1.012-3.969c-.02-.162.02-.2.162-.2H99.1c.142 0 .182.041.223.182a10.07 10.07 0 0 0 2.43 5.022 7.867 7.867 0 0 0 4.515 2.41 11.834 11.834 0 0 0 3.685.04 6.456 6.456 0 0 0 2.008-.654z" class="prefix__cls-2" data-name="Path 5040" transform="translate(-86.867 -227.52)"/>
        <path id="prefix__Path_5041" d="M185.42 212.5h-1.782a3.327 3.327 0 0 1-3.219-1.964 8.479 8.479 0 0 0-1.377-1.984 4.824 4.824 0 0 0-2-1.195 9.187 9.187 0 0 0-2.754-.506 10.576 10.576 0 0 0-4.131.547 7.685 7.685 0 0 0-4.576 4.475 14.579 14.579 0 0 0-.931 4.03 24.437 24.437 0 0 0-.081 3.442 15.069 15.069 0 0 0 .344 2.855c.041.162.041.2-.162.182a4.435 4.435 0 0 0-3.037.992 16 16 0 0 0-1.883 2c-.122.142 0 .182.061.243.992.911 2 1.822 3.017 2.754.04.041.142.081.121.162s-.121.081-.182.1a8.683 8.683 0 0 1-2.491.425c-.162.02-.223-.081-.284-.2a15.828 15.828 0 0 1-1.7-4.414 24.063 24.063 0 0 1-.587-4.171c-.041-.83-.081-1.64-.081-2.47a23.769 23.769 0 0 1 1.276-7.978 13.044 13.044 0 0 1 9.577-8.606 18.755 18.755 0 0 1 3.827-.547 21.342 21.342 0 0 1 6.5.587 12.2 12.2 0 0 1 5.568 3.118 11.771 11.771 0 0 1 3.017 5.548 20.981 20.981 0 0 1 .385 2.207c.041.324.041.324-.3.324-.738.044-1.446.044-2.135.044z" class="prefix__cls-1" data-name="Path 5041" transform="translate(-138.964 -200.611)"/>
        <path id="prefix__Path_5042" d="M115.579 201.264a13.086 13.086 0 0 0-4.212 2.916 14.376 14.376 0 0 0-1.8 2.187.376.376 0 0 1-.3.182 8.112 8.112 0 0 0-5.143 2.187 8.95 8.95 0 0 0-1.883 2.713.329.329 0 0 1-.344.223c-2.207-.02-4.434-.02-6.642 0-.243 0-.243-.061-.182-.263a15.508 15.508 0 0 1 3.078-5.852 14.19 14.19 0 0 1 4.171-3.26 16.44 16.44 0 0 1 6.115-1.721 19.725 19.725 0 0 1 6.965.587c.015.037.076.061.177.101z" class="prefix__cls-2" data-name="Path 5042" transform="translate(-88.986 -200.493)"/>
        <path id="prefix__Path_5043" d="M237.62 324.509c.243-.223.506-.445.749-.688.466-.466.911-.931 1.4-1.4.1-.1.142-.162.02-.3-1.053-1.033-2.106-2.086-3.2-3.1a4.924 4.924 0 0 0-.589-.421c.364-.02.688-.04.992-.081a7.618 7.618 0 0 0 4.029-1.458 6.692 6.692 0 0 0 2.086-2.916 15.18 15.18 0 0 0 .506-1.539c.041-.142.1-.2.243-.2 2.086 0 4.171.02 6.237 0 .263 0 .223.142.2.284a15.1 15.1 0 0 1-1.134 4.515 11.643 11.643 0 0 1-7.269 6.5 17.507 17.507 0 0 1-4.212.871c-.018-.006-.038-.047-.058-.067z" data-name="Path 5043" transform="translate(-201.409 -289.74)" style="fill:#4dbab5"/>
        <path id="prefix__Path_5044" d="M73.619 258.2h7.431a.923.923 0 1 1 .121 1.843H66.188a.948.948 0 0 1-1.012-.79.9.9 0 0 1 .952-1.053h7.492z" class="prefix__cls-4" data-name="Path 5044" transform="translate(-65.169 -246.515)"/>
        <path id="prefix__Path_5045" d="M76.3 276.12h6.6a.894.894 0 0 1 .931.628.918.918 0 0 1-.871 1.215h-13.2a.972.972 0 0 1-1.053-.749.919.919 0 0 1 .79-1.094 1.435 1.435 0 0 1 .283-.02c2.191.02 4.358.02 6.52.02z" class="prefix__cls-4" data-name="Path 5045" transform="translate(-67.976 -260.791)"/>
        <path id="prefix__Path_5046" d="M82.292 295.843h-5a.916.916 0 0 1-.931-.648.939.939 0 0 1 .869-1.195h10a.954.954 0 0 1 .911.446.9.9 0 0 1-.709 1.4c-.364.02-.729 0-1.093 0z" class="prefix__cls-4" data-name="Path 5046" transform="translate(-74.065 -275.066)"/>
        <path id="prefix__Path_5047" d="M95.1 269.62h3.2c.2 0 .223.04.2.223-.081.567-.081.567-.648.567h-6.076c-.2 0-.263-.041-.223-.263.061-.547.04-.547.587-.547.973.02 1.96.02 2.96.02z" data-name="Path 5047" transform="translate(-86.201 -255.607)" style="fill:#232021"/>
        <path id="prefix__Path_5048" d="M94.167 288.49h-3.2c-.162 0-.283-.628-.162-.749a2.772 2.772 0 0 1 .587-.04h6.014c.162 0 .223.02.223.223-.02.567 0 .587-.567.587-.972-.021-1.923-.021-2.895-.021z" class="prefix__cls-2" data-name="Path 5048" transform="translate(-85.575 -270.042)"/>
        <path id="prefix__Path_5049" d="M210.091 367.509a13.114 13.114 0 0 1-2.491-.445c.02-.1.1-.1.162-.142a3.524 3.524 0 0 1 .385-.2c.223-.1.4-.344.628-.324.2.04.385.283.547.445.262.2.505.443.769.666z" class="prefix__cls-4" data-name="Path 5049" transform="translate(-178.76 -332.801)"/>
    </g>
</svg>
