<svg xmlns="http://www.w3.org/2000/svg" viewBox="0 0 188.349 191.115">
  <defs>
    <style>
      .cls-1 {
        fill: #fff100;
      }

      .cls-2 {
        fill: #fff;
      }
    </style>
  </defs>
  <g id="Group_5492" data-name="Group 5492" transform="translate(57 -756)">
    <path id="Path_4088" data-name="Path 4088" class="cls-1" d="M664.317,476.732a95.506,95.506,0,1,1,48.87-184.655l.6.16a8.054,8.054,0,0,1-4.171,15.558,79.4,79.4,0,1,0,56.126,97.251h0a8.055,8.055,0,0,1,15.56,4.171A95.61,95.61,0,0,1,664.317,476.732Z" transform="translate(-650.222 467.125)"/>
    <path id="Path_4091" data-name="Path 4091" class="cls-2" d="M515.714,752.209a64.19,64.19,0,1,1,64.191-64.188A64.263,64.263,0,0,1,515.714,752.209Zm0-111.412a47.224,47.224,0,1,0,47.224,47.223A47.277,47.277,0,0,0,515.714,640.8Z" transform="translate(-478.446 163.248)"/>
  </g>
</svg>
