<svg xmlns="http://www.w3.org/2000/svg" width="275" height="275" viewBox="0 0 275 275">
    <defs>
        <filter id="prefix__Path_2452" width="275" height="275" x="0" y="0" filterUnits="userSpaceOnUse">
            <feOffset/>
            <feGaussianBlur result="blur" stdDeviation="7.5"/>
            <feFlood flood-opacity=".251"/>
            <feComposite in2="blur" operator="in"/>
            <feComposite in="SourceGraphic"/>
        </filter>
        <style>
            .prefix__cls-1{fill:#fff}.prefix__cls-2{fill:#fed370}.prefix__cls-3{fill:#eda929}.prefix__cls-4{fill:none}
        </style>
    </defs>
    <g id="prefix__Group_5374" data-name="Group 5374" transform="translate(-582.5 -392.5)">
        <g transform="translate(582.5 392.5)">
            <path id="prefix__Path_2452-2" d="M115 0A115 115 0 1 1 0 115 115 115 0 0 1 115 0z" class="prefix__cls-1" data-name="Path 2452" transform="translate(22.5 22.5)"/>
        </g>
        <path id="prefix__Path_2453" d="M-1155.269 157.035a8.356 8.356 0 0 0-8.357-8.357 8.357 8.357 0 0 0-8.357 8.357 8.31 8.31 0 0 0 .9 3.763l-24.5-.362a26.214 26.214 0 0 0-11.864-11.492 26.06 26.06 0 0 0-11.351-2.62 26.184 26.184 0 0 0-26.155 26.155 26.183 26.183 0 0 0 26.155 26.154 25.944 25.944 0 0 0 11.351-2.609 26.247 26.247 0 0 0 14.507-19.655h2.506l6.118 6.448 6.447-6.448h3.492l8.816 9.387v2.3a2.2 2.2 0 0 0 2.2 2.2 2.2 2.2 0 0 0 2.2-2.2v-23.035a8.361 8.361 0 0 0 5.892-7.986z" class="prefix__cls-2" data-name="Path 2453" transform="translate(1882.953 374.4)"/>
        <path id="prefix__Path_2454" d="M-1217.933 162.024a11.334 11.334 0 0 0-11.321 11.321 11.334 11.334 0 0 0 11.321 11.321 11.334 11.334 0 0 0 10.409-6.878 11.251 11.251 0 0 0 .911-4.443 11.254 11.254 0 0 0-.911-4.443 11.335 11.335 0 0 0-10.409-6.878z" class="prefix__cls-1" data-name="Path 2454" transform="translate(1882.088 373.535)"/>
        <g id="prefix__locker-key-icon" transform="translate(638 475.378)">
            <path id="prefix__Path_1919" d="M714.915 1588.846h-15.962v-14.156a3.678 3.678 0 0 0-3.673-3.674h-18.136a3.678 3.678 0 0 0-3.674 3.674v14.156h-15.962v-15.736a16.629 16.629 0 0 1 16.61-16.611H698.3a16.63 16.63 0 0 1 16.612 16.611z" class="prefix__cls-2" data-name="Path 1919" transform="translate(-603.918 -1556.475)"/>
            <g id="prefix__Group_2315" data-name="Group 2315" transform="translate(36.626 29.967)">
                <path id="prefix__Path_1993" d="M-1127.985 128.841h-62.489a12.856 12.856 0 0 0-12.842 12.841v7.789c.043.02.084.03.128.052a21.312 21.312 0 0 1 9.57 11c10.64.611 21.739-.943 32.292 1.107 2.615.508 4.293 2.138 4.389 4.894v.2a3.041 3.041 0 0 1-.458 3.408 11.784 11.784 0 0 0-.149 1.268c-.11 2 .154 3.737-.586 5.631-.588 1.5-2.565 2.917-4.174 1.7-2.124-1.609-3.294-4.806-5.454-6.114-1.284-.778-3.587-.39-5.063-.244-2.119.208-2.671.892-3.651 2.7-.8 1.481-3.318 1.993-4.463.574-1.545-1.916-2.444-4.044-5.181-3.848-1.839.132-3.612.738-5.454.974a25.879 25.879 0 0 1-5.055 14.626c-1.47 1.894-3.768 5.071-6.586 4.087-.037-.012-.068-.032-.1-.045v2.343a12.857 12.857 0 0 0 12.842 12.842h62.489a12.857 12.857 0 0 0 12.842-12.842v-52.102a12.856 12.856 0 0 0-12.847-12.841z" class="prefix__cls-2" data-name="Path 1993" transform="translate(1203.316 -128.841)"/>
            </g>
            <g id="prefix__Group_2316" data-name="Group 2316" transform="translate(35.514 28.209)">
                <path id="prefix__Path_1994" d="M-1125.846 126.842h-65.313a13.437 13.437 0 0 0-13.422 13.423v7.113a4.121 4.121 0 0 1 2.31 1.159 4.074 4.074 0 0 1 2.088 1.158v-9.429a9.034 9.034 0 0 1 9.024-9.024h65.313a9.034 9.034 0 0 1 9.024 9.024v54.463a9.034 9.034 0 0 1-9.024 9.024h-65.313a9.034 9.034 0 0 1-9.024-9.024v-7.419c-1.487.767-2.934 1.6-4.4 2.41v5.009a13.437 13.437 0 0 0 13.422 13.423h65.313a13.438 13.438 0 0 0 13.423-13.423v-54.464a13.438 13.438 0 0 0-13.421-13.423z" class="prefix__cls-3" data-name="Path 1994" transform="translate(1204.581 -126.842)"/>
            </g>
            <g id="prefix__Group_2317" data-name="Group 2317" transform="translate(53.113)">
                <path id="prefix__Path_1995" d="M-1127.133 127.139h-15.967v-14.165a3.681 3.681 0 0 0-3.676-3.676h-18.147a3.681 3.681 0 0 0-3.675 3.676v14.165h-15.972v-15.746a16.638 16.638 0 0 1 16.62-16.619h24.2a16.638 16.638 0 0 1 16.62 16.619zm-11.573-4.4h7.175v-11.346a12.235 12.235 0 0 0-12.222-12.221h-24.2a12.235 12.235 0 0 0-12.222 12.221v11.348h7.175v-9.767a8.083 8.083 0 0 1 8.073-8.074h18.147a8.083 8.083 0 0 1 8.074 8.074z" class="prefix__cls-3" data-name="Path 1995" transform="translate(1184.574 -94.774)"/>
            </g>
            <g id="prefix__Group_2319" data-name="Group 2319" transform="translate(0 45.347)">
                <g id="prefix__Group_2318" data-name="Group 2318" transform="translate(4.398 4.398)">
                    <path id="prefix__Path_1996" d="M-1216.307 167.024a7.956 7.956 0 0 0-7.947 7.947 7.956 7.956 0 0 0 7.947 7.947 7.956 7.956 0 0 0 7.946-7.947 7.956 7.956 0 0 0-7.946-7.947z" class="prefix__cls-4" data-name="Path 1996" transform="translate(1238.064 -153.214)"/>
                    <path id="prefix__Path_1997" d="M-1218.2 185.427a12.36 12.36 0 0 1-12.345-12.345 12.36 12.36 0 0 1 12.345-12.345 12.36 12.36 0 0 1 11.351 7.5v-13.69a21.713 21.713 0 0 0-11.351-3.222 21.781 21.781 0 0 0-21.757 21.757 21.78 21.78 0 0 0 21.757 21.756 21.6 21.6 0 0 0 11.351-3.224v-13.687a12.36 12.36 0 0 1-11.351 7.5z" class="prefix__cls-4" data-name="Path 1997" transform="translate(1239.953 -151.325)"/>
                    <path id="prefix__Path_1998" d="M-1216.909 162.024a12.36 12.36 0 0 0-12.345 12.345 12.36 12.36 0 0 0 12.345 12.345 12.36 12.36 0 0 0 11.351-7.5 12.27 12.27 0 0 0 .993-4.845 12.273 12.273 0 0 0-.993-4.845 12.36 12.36 0 0 0-11.351-7.5zm0 20.292a7.956 7.956 0 0 1-7.947-7.947 7.956 7.956 0 0 1 7.947-7.947 7.956 7.956 0 0 1 7.946 7.947 7.956 7.956 0 0 1-7.946 7.947z" class="prefix__cls-3" data-name="Path 1998" transform="translate(1238.666 -152.613)"/>
                </g>
                <path id="prefix__Path_1999" d="M-1155.269 157.035a8.356 8.356 0 0 0-8.357-8.357 8.357 8.357 0 0 0-8.357 8.357 8.31 8.31 0 0 0 .9 3.763l-24.5-.362a26.214 26.214 0 0 0-11.864-11.492 26.06 26.06 0 0 0-11.351-2.62 26.184 26.184 0 0 0-26.155 26.155 26.183 26.183 0 0 0 26.155 26.154 25.944 25.944 0 0 0 11.351-2.609 26.247 26.247 0 0 0 14.507-19.655h2.506l6.118 6.448 6.447-6.448h3.492l8.816 9.387v2.3a2.2 2.2 0 0 0 2.2 2.2 2.2 2.2 0 0 0 2.2-2.2v-23.035a8.361 8.361 0 0 0 5.892-7.986zm-10.524 22.048l-6.679-7.111h-7.217l-4.543 4.543-4.311-4.543h-8.417l-.143 2.046a21.76 21.76 0 0 1-10.344 16.994 21.6 21.6 0 0 1-11.351 3.224 21.886 21.886 0 0 1-20.9-15.7 21.173 21.173 0 0 1-.857-6.056 21.781 21.781 0 0 1 21.757-21.757 21.713 21.713 0 0 1 11.351 3.222 21.778 21.778 0 0 1 8.475 9.577l.575 1.272 32.693.482z" class="prefix__cls-3" data-name="Path 1999" transform="translate(1244.953 -146.325)"/>
            </g>
        </g>
        <g id="prefix__Group_3583" data-name="Group 3583">
            <path id="prefix__Rectangle_2339" d="M0 0H160V160H0z" class="prefix__cls-4" data-name="Rectangle 2339" transform="translate(640 450)"/>
        </g>
    </g>
</svg>
