<svg xmlns="http://www.w3.org/2000/svg" width="160" height="160" viewBox="0 0 160 160"><defs><style>.a{fill:none;}.b{fill:#fed370;}.c{fill:#eda929;}.d{fill:#fff;}</style></defs><g transform="translate(-640 -450)"><rect class="a" width="160" height="160" transform="translate(640 450)"/><g transform="translate(-4833.693 -1166)"><g transform="translate(5507.693 1641.402)"><path class="b" d="M714.915,1588.846H698.953v-14.156a3.678,3.678,0,0,0-3.673-3.674H677.144a3.678,3.678,0,0,0-3.674,3.674v14.156H657.508V1573.11a16.629,16.629,0,0,1,16.61-16.611H698.3a16.63,16.63,0,0,1,16.612,16.611Z" transform="translate(-639.918 -1556.5)"/><g transform="translate(1.992 29.95)"><path class="b" d="M715.052,1668.313H652.6a12.848,12.848,0,0,1-12.834-12.834V1603.4a12.848,12.848,0,0,1,12.834-12.835h62.452a12.849,12.849,0,0,1,12.835,12.835v52.077A12.849,12.849,0,0,1,715.052,1668.313Z" transform="translate(-639.766 -1590.567)"/></g><g transform="translate(0 28.192)"><path class="c" d="M716.19,1669.829H650.915a13.43,13.43,0,0,1-13.415-13.415v-54.432a13.43,13.43,0,0,1,13.415-13.415H716.19a13.43,13.43,0,0,1,13.415,13.415v54.432A13.43,13.43,0,0,1,716.19,1669.829Zm-65.275-76.866a9.03,9.03,0,0,0-9.019,9.019v54.432a9.03,9.03,0,0,0,9.019,9.019H716.19a9.03,9.03,0,0,0,9.019-9.019v-54.432a9.03,9.03,0,0,0-9.019-9.019Z" transform="translate(-637.5 -1588.568)"/></g><g transform="translate(17.59)"><path class="c" d="M714.915,1588.846H698.953v-14.156a3.678,3.678,0,0,0-3.673-3.674H677.144a3.678,3.678,0,0,0-3.674,3.674v14.156H657.508V1573.11a16.629,16.629,0,0,1,16.61-16.611H698.3a16.63,16.63,0,0,1,16.612,16.611Zm-11.567-4.4h7.171v-11.34A12.229,12.229,0,0,0,698.3,1560.9H674.118A12.228,12.228,0,0,0,661.9,1573.11v11.34h7.17v-9.761a8.079,8.079,0,0,1,8.07-8.07H695.28a8.078,8.078,0,0,1,8.069,8.07Z" transform="translate(-657.508 -1556.5)"/></g><path class="d" d="M675.768,1635.4l6.924,6.923a2.789,2.789,0,0,0,3.853,0l13.847-13.846a2.725,2.725,0,0,0-3.854-3.854l-11.921,11.921-5-5a2.725,2.725,0,0,0-3.853,3.854Z" transform="translate(-642.029 -1564.636)"/><g transform="translate(22.505 45.276)"><path class="c" d="M686.646,1655.094a23.547,23.547,0,1,1,23.547-23.547A23.573,23.573,0,0,1,686.646,1655.094Zm0-42.7a19.151,19.151,0,1,0,19.151,19.151A19.172,19.172,0,0,0,686.646,1612.4Z" transform="translate(-663.099 -1608)"/></g></g></g></g></svg>