<svg xmlns="http://www.w3.org/2000/svg" width="40" height="36.919" viewBox="0 0 40 36.919">
  <defs>
    <style>
      .cls-1 {
        fill: #ffbb01;
      }

      .cls-2 {
        fill: rgba(255,255,255,0.85);
      }
    </style>
  </defs>
  <g id="Group_3393" data-name="Group 3393" transform="translate(-181 -334.317)">
    <path id="Icon_ionic-ios-warning" data-name="Icon ionic-ios-warning" class="cls-1" d="M20.767,6.029,3.74,37.1a2.922,2.922,0,0,0,2.605,4.317H40.409A2.929,2.929,0,0,0,43.015,37.1L25.978,6.029A2.985,2.985,0,0,0,20.767,6.029Z" transform="translate(177.625 329.817)"/>
    <path id="Path_2414" data-name="Path 2414" class="cls-2" d="M143.129,332.249a1.684,1.684,0,0,1-1.866-1.866v-.529a1.684,1.684,0,0,1,1.866-1.866h.4a1.684,1.684,0,0,1,1.866,1.866v.529a1.684,1.684,0,0,1-1.866,1.866Zm.218-6.873q-1.057,0-1.151-1.182l-.9-11.445a2.137,2.137,0,0,1,.513-1.617,1.914,1.914,0,0,1,1.508-.653,1.961,1.961,0,0,1,1.524.653,2.012,2.012,0,0,1,.5,1.617l-.871,11.445Q144.373,325.376,143.347,325.376Z" transform="translate(57.321 35.028)"/>
  </g>
</svg>
